<svg width="18" height="18" viewBox="0 0 18 18" fill="none" xmlns="http://www.w3.org/2000/svg">
<path fill-rule="evenodd" clip-rule="evenodd" d="M3.65901 2.90901C4.08097 2.48705 4.65326 2.25 5.25 2.25C5.84674 2.25 6.41903 2.48705 6.84099 2.90901C7.26295 3.33097 7.5 3.90326 7.5 4.5C7.5 5.09674 7.26295 5.66903 6.84099 6.09099C6.62175 6.31023 6.36193 6.47955 6.07918 6.59164C6.1813 6.9663 6.37962 7.3116 6.65901 7.59099C7.08097 8.01295 7.65326 8.25 8.25 8.25H10.6287C10.7395 7.93657 10.9195 7.64856 11.159 7.40901C11.581 6.98705 12.1533 6.75 12.75 6.75C13.3467 6.75 13.919 6.98705 14.341 7.40901C14.7629 7.83097 15 8.40326 15 9C15 9.59674 14.7629 10.169 14.341 10.591C13.919 11.0129 13.3467 11.25 12.75 11.25C12.1533 11.25 11.581 11.0129 11.159 10.591C10.9195 10.3514 10.7395 10.0634 10.6287 9.75H8.25C7.43394 9.75 6.6453 9.484 6 9.00002V11.3787C6.31343 11.4895 6.60144 11.6695 6.84099 11.909C7.26295 12.331 7.5 12.9033 7.5 13.5C7.5 14.0967 7.26295 14.669 6.84099 15.091C6.41903 15.5129 5.84674 15.75 5.25 15.75C4.65326 15.75 4.08097 15.5129 3.65901 15.091C3.23705 14.669 3 14.0967 3 13.5C3 12.9033 3.23705 12.331 3.65901 11.909C3.89856 11.6695 4.18657 11.4895 4.5 11.3787V6.62132C4.18657 6.5105 3.89856 6.33054 3.65901 6.09099C3.23705 5.66903 3 5.09674 3 4.5C3 3.90326 3.23705 3.33097 3.65901 2.90901ZM5.25 3.75C5.05109 3.75 4.86032 3.82902 4.71967 3.96967C4.57902 4.11032 4.5 4.30109 4.5 4.5C4.5 4.69891 4.57902 4.88968 4.71967 5.03033C4.86032 5.17098 5.05109 5.25 5.25 5.25C5.44891 5.25 5.63968 5.17098 5.78033 5.03033C5.92098 4.88968 6 4.69891 6 4.5C6 4.30109 5.92098 4.11032 5.78033 3.96967C5.63968 3.82902 5.44891 3.75 5.25 3.75ZM12.75 8.25C12.5511 8.25 12.3603 8.32902 12.2197 8.46967C12.079 8.61032 12 8.80109 12 9C12 9.19891 12.079 9.38968 12.2197 9.53033C12.3603 9.67098 12.5511 9.75 12.75 9.75C12.9489 9.75 13.1397 9.67098 13.2803 9.53033C13.421 9.38968 13.5 9.19891 13.5 9C13.5 8.80109 13.421 8.61032 13.2803 8.46967C13.1397 8.32902 12.9489 8.25 12.75 8.25ZM5.25 12.75C5.05109 12.75 4.86032 12.829 4.71967 12.9697C4.57902 13.1103 4.5 13.3011 4.5 13.5C4.5 13.6989 4.57902 13.8897 4.71967 14.0303C4.86032 14.171 5.05109 14.25 5.25 14.25C5.44891 14.25 5.63968 14.171 5.78033 14.0303C5.92098 13.8897 6 13.6989 6 13.5C6 13.3011 5.92098 13.1103 5.78033 12.9697C5.63968 12.829 5.44891 12.75 5.25 12.75Z" fill="currentColor"/>
</svg>
