<svg width="20" height="20" viewBox="0 0 20 20" fill="none" xmlns="http://www.w3.org/2000/svg">
<path fill-rule="evenodd" clip-rule="evenodd" d="M7.5 1.6665C7.96024 1.6665 8.33333 2.0396 8.33333 2.49984V3.33317H9.16667C9.6269 3.33317 10 3.70627 10 4.1665C10 4.62674 9.6269 4.99984 9.16667 4.99984H8.30341C8.18423 6.64932 7.71425 8.15719 6.98614 9.32214C6.96169 9.36125 6.93689 9.40006 6.91173 9.43856C7.69666 9.76182 8.67726 9.97325 9.77045 10.0001C10.2305 10.0114 10.5944 10.3935 10.5831 10.8536C10.5718 11.3137 10.1896 11.6775 9.72955 11.6663C8.24133 11.6297 6.85906 11.299 5.76221 10.7444C5.07061 11.3137 4.25006 11.6665 3.33333 11.6665C2.8731 11.6665 2.5 11.2934 2.5 10.8332C2.5 10.3729 2.8731 9.99984 3.33333 9.99984C3.65861 9.99984 3.99387 9.90902 4.32325 9.72141C3.72746 9.11777 3.33333 8.36802 3.33333 7.49984C3.33333 7.0396 3.70643 6.6665 4.16667 6.6665C4.6269 6.6665 5 7.0396 5 7.49984C5 7.81716 5.14742 8.18318 5.50342 8.54696C5.52672 8.51158 5.54986 8.47552 5.57282 8.43878C6.12245 7.55941 6.51617 6.36421 6.6317 4.99984H3.33333C2.8731 4.99984 2.5 4.62674 2.5 4.1665C2.5 3.70627 2.8731 3.33317 3.33333 3.33317H6.66667V2.49984C6.66667 2.0396 7.03976 1.6665 7.5 1.6665ZM13.3333 8.33317C13.6627 8.33317 13.9611 8.52711 14.0948 8.82805L17.4282 16.3281C17.6151 16.7486 17.4257 17.2411 17.0051 17.428C16.5845 17.6149 16.0921 17.4255 15.9052 17.005L15.3844 15.8332H11.2823L10.7615 17.005C10.5746 17.4255 10.0821 17.6149 9.66155 17.428C9.24098 17.2411 9.05157 16.7486 9.23849 16.3281L12.5718 8.82805C12.7056 8.52711 13.004 8.33317 13.3333 8.33317ZM12.023 14.1665H14.6436L13.3333 11.2183L12.023 14.1665Z" fill="currentColor"/>
</svg>
