<svg width="1500" height="1500" viewBox="0 0 1500 1500" fill="none" xmlns="http://www.w3.org/2000/svg">
<rect width="1500" height="1500" fill="white"/>
<rect x="106" y="107" width="1287" height="1287" rx="200" fill="url(#paint0_linear_64_34)"/>
<path d="M1019.77 851.674C1021.63 847.94 1021.63 844.207 1023.5 840.474C1038.47 758.741 1023.5 733.907 1023.5 733.907H853.4C853.4 733.907 843.237 727.939 838.4 724.574C838.4 724.574 657.1 612.407 462.733 416.141C457.1 410.541 567.4 573.141 690.767 702.141C632.833 668.474 468.333 550.741 365.5 455.374C376.733 475.941 393.567 496.507 410.367 517.074C496.367 627.374 608.533 761.941 743.133 864.741C647.8 922.741 515.067 926.441 380.467 864.741C346.8 849.807 318.8 831.107 287 808.674C343.067 896.541 430.933 976.941 535.633 1019.91C660.867 1074.14 787.967 1070.41 879.567 1019.91H881.467C885.2 1018.04 888.933 1016.17 892.667 1012.44C937.533 990.007 1025.4 965.707 1074 1059.17C1087.07 1085.34 1111.37 963.84 1019.8 851.674H1019.77Z" fill="#E84E36"/>
<path d="M963.967 661.741H1023.97V721.741H963.967V661.741Z" fill="#E84E36"/>
<path d="M884.967 661.741H944.967V721.741H884.967V661.741Z" fill="#E84E36"/>
<path d="M805.967 661.741H865.967V721.741H844.467L805.967 694.741V661.741Z" fill="#E84E36"/>
<path d="M884.967 582.741H944.967V642.741H884.967V582.741Z" fill="#E84E36"/>
<path d="M805.967 582.741H865.967V642.741H805.967V582.741Z" fill="#E84E36"/>
<path d="M726.967 582.741H786.967V642.741H726.967V582.741Z" fill="#E84E36"/>
<path d="M755.467 661.741H789.967V686.241L755.467 661.741Z" fill="#E84E36"/>
<path d="M805.967 503.741H865.967V563.741H805.967V503.741Z" fill="#E84E36"/>
<defs>
<linearGradient id="paint0_linear_64_34" x1="749.5" y1="107" x2="749.5" y2="1394" gradientUnits="userSpaceOnUse">
<stop stop-color="#FFF8EE"/>
<stop offset="1" stop-color="#FFE9C7"/>
</linearGradient>
</defs>
</svg>
